<?xml version="1.0" encoding="UTF-8"?>
<svg xmlns="http://www.w3.org/2000/svg" xmlns:xlink="http://www.w3.org/1999/xlink" width="420px" height="500px" viewBox="0 0 420 499" version="1.1">
<g id="surface1">
<path style=" stroke:none;fill-rule:nonzero;fill:rgb(100%,73.333333%,0%);fill-opacity:1;" d="M 12.238281 379.410156 L 407.753906 379.410156 C 411.03125 379.410156 413.691406 382.066406 413.691406 385.34375 L 413.691406 486.777344 C 413.691406 490.054688 411.03125 492.714844 407.753906 492.714844 L 12.238281 492.714844 C 8.957031 492.714844 6.296875 490.054688 6.296875 486.777344 L 6.296875 385.34375 C 6.296875 382.066406 8.957031 379.410156 12.238281 379.410156 Z M 12.238281 379.410156 "/>
<path style=" stroke:none;fill-rule:nonzero;fill:rgb(0%,0%,0%);fill-opacity:1;" d="M 10.289062 373.109375 C 4.589844 373.109375 0 377.707031 0 383.402344 L 0 488.71875 C 0 494.417969 4.589844 499 10.289062 499 L 409.707031 499 C 415.40625 499 419.996094 494.417969 419.996094 488.71875 L 419.996094 383.402344 C 419.996094 377.707031 415.40625 373.109375 409.707031 373.109375 Z M 12.613281 379.402344 L 407.382812 379.402344 C 410.882812 379.402344 413.695312 382.226562 413.695312 385.722656 L 413.695312 486.398438 C 413.695312 489.894531 410.882812 492.707031 407.382812 492.707031 L 12.613281 492.707031 C 9.113281 492.707031 6.300781 489.894531 6.300781 486.398438 L 6.300781 385.722656 C 6.300781 382.226562 9.113281 379.402344 12.613281 379.402344 Z M 12.613281 379.402344 "/>
<path style="fill-rule:nonzero;fill:rgb(0%,0%,0%);fill-opacity:1;stroke-width:1.881482;stroke-linecap:butt;stroke-linejoin:miter;stroke:rgb(0%,0%,0%);stroke-opacity:1;stroke-miterlimit:4;" d="M -123.366372 1523.767303 C -127.877194 1523.767303 -132.006689 1523.236723 -135.773458 1522.175562 C -139.530927 1521.086475 -142.776858 1519.410957 -145.511254 1517.149008 C -148.208446 1514.859134 -150.328998 1511.936286 -151.872908 1508.389774 C -153.370315 1504.833953 -154.123669 1500.589308 -154.123669 1495.674456 L -154.123669 1450.500636 L -139.000789 1450.500636 L -139.000789 1494.492285 C -139.000789 1497.536142 -138.619461 1500.16112 -137.875408 1502.385835 C -137.122054 1504.573317 -136.043177 1506.388461 -134.638777 1507.82196 C -133.243677 1509.227533 -131.550957 1510.270077 -129.569915 1510.949593 C -127.579573 1511.601183 -125.375315 1511.926978 -122.957143 1511.926978 C -120.492467 1511.926978 -118.232405 1511.582566 -116.186259 1510.893742 C -114.10291 1510.176993 -112.326483 1509.087906 -110.856978 1507.617174 C -109.350271 1506.146442 -108.187688 1504.284755 -107.369229 1502.032115 C -106.550771 1499.770166 -106.132241 1497.089338 -106.132241 1493.980321 L -106.132241 1450.500636 L -91.009361 1450.500636 L -91.009361 1494.901856 C -91.009361 1499.853942 -91.818518 1504.145129 -93.418233 1507.766109 C -95.027248 1511.396397 -97.268708 1514.403021 -100.133312 1516.795288 C -103.007218 1519.150321 -106.429862 1520.909615 -110.391945 1522.073169 C -114.326126 1523.199489 -118.641634 1523.767303 -123.366372 1523.767303 " transform="matrix(0.419997,0,0,0.419646,199.786147,-211.142692)"/>
<path style="fill-rule:nonzero;fill:rgb(0%,0%,0%);fill-opacity:1;stroke-width:1.881482;stroke-linecap:butt;stroke-linejoin:miter;stroke:rgb(0%,0%,0%);stroke-opacity:1;stroke-miterlimit:4;" d="M -33.875379 1522.743376 L -65.358128 1467.116187 C -65.190716 1468.614844 -65.032605 1470.12281 -64.893095 1471.621468 C -64.762886 1472.924648 -64.660578 1474.330222 -64.586173 1475.828879 C -64.483866 1477.336845 -64.437363 1478.770344 -64.437363 1480.138683 L -64.437363 1522.743376 L -77.867522 1522.743376 L -77.867522 1450.500636 L -60.586887 1450.500636 L -28.648406 1506.593247 C -28.815818 1505.159748 -28.973929 1503.651782 -29.113439 1502.078657 C -29.243649 1500.747551 -29.364557 1499.239585 -29.466865 1497.564068 C -29.54127 1495.88855 -29.569172 1494.203724 -29.569172 1492.490972 L -29.569172 1450.500636 L -16.139013 1450.500636 L -16.139013 1522.743376 L -33.875379 1522.743376 " transform="matrix(0.419997,0,0,0.419646,199.786147,-211.142692)"/>
<path style="fill-rule:nonzero;fill:rgb(0%,0%,0%);fill-opacity:1;stroke-width:1.881482;stroke-linecap:butt;stroke-linejoin:miter;stroke:rgb(0%,0%,0%);stroke-opacity:1;stroke-miterlimit:4;" d="M 62.070274 1486.086771 C 62.060973 1492.100018 61.158809 1497.396516 59.345179 1501.976264 C 57.540851 1506.518779 55.057573 1510.335236 51.913949 1513.407019 C 48.770324 1516.48811 45.040758 1518.815218 40.73455 1520.379034 C 36.465545 1521.952159 31.852416 1522.743376 26.895161 1522.743376 L -2.327526 1522.743376 L -2.327526 1450.500636 L 23.816642 1450.500636 C 29.424942 1450.500636 34.56821 1451.198768 39.246444 1452.604342 C 43.933979 1454.009915 47.970467 1456.160163 51.346608 1459.064393 C 54.73205 1461.968624 57.364138 1465.664071 59.242872 1470.141427 C 61.121606 1474.618783 62.060973 1479.933898 62.070274 1486.086771 M 46.835786 1486.086771 C 46.835786 1481.87936 46.259145 1478.276997 45.096562 1475.270373 C 43.971181 1472.254441 42.380768 1469.797015 40.325321 1467.879478 C 38.279175 1465.934016 35.814499 1464.500518 32.940593 1463.578983 C 30.103891 1462.657448 26.960266 1462.192026 23.50972 1462.192026 L 12.795354 1462.192026 L 12.795354 1511.051985 L 25.61167 1511.051985 C 28.652987 1511.051985 31.461788 1510.521405 34.01947 1509.460244 C 36.614356 1508.399082 38.855816 1506.835266 40.73455 1504.750177 C 42.650487 1502.627855 44.138593 1500.012185 45.198869 1496.903169 C 46.296347 1493.794153 46.835786 1490.182481 46.835786 1486.086771 " transform="matrix(0.419997,0,0,0.419646,199.786147,-211.142692)"/>
<path style="fill-rule:nonzero;fill:rgb(0%,0%,0%);fill-opacity:1;stroke-width:1.881482;stroke-linecap:butt;stroke-linejoin:miter;stroke:rgb(0%,0%,0%);stroke-opacity:1;stroke-miterlimit:4;" d="M 73.21247 1522.743376 L 73.21247 1450.500636 L 130.020928 1450.500636 L 130.020928 1462.192026 L 88.33535 1462.192026 L 88.33535 1480.343469 L 126.886604 1480.343469 L 126.886604 1492.034859 L 88.33535 1492.034859 L 88.33535 1511.051985 L 132.122878 1511.051985 L 132.122878 1522.743376 L 73.21247 1522.743376 " transform="matrix(0.419997,0,0,0.419646,199.786147,-211.142692)"/>
<path style="fill-rule:nonzero;fill:rgb(0%,0%,0%);fill-opacity:1;stroke-width:1.881482;stroke-linecap:butt;stroke-linejoin:miter;stroke:rgb(0%,0%,0%);stroke-opacity:1;stroke-miterlimit:4;" d="M 192.633 1522.743376 L 175.873203 1495.311427 L 158.127536 1495.311427 L 158.127536 1522.743376 L 143.004655 1522.743376 L 143.004655 1450.500636 L 179.100534 1450.500636 C 183.611356 1450.500636 187.545537 1451.0126 190.893776 1452.036527 C 194.279218 1453.032529 197.097319 1454.466028 199.34808 1456.346331 C 201.608141 1458.189401 203.282261 1460.45135 204.379739 1463.113561 C 205.50512 1465.747847 206.07246 1468.717237 206.07246 1472.040347 C 206.07246 1474.739793 205.65393 1477.215835 204.835472 1479.468476 C 204.054216 1481.693191 202.938136 1483.675887 201.505834 1485.416564 C 200.101434 1487.157241 198.427314 1488.627973 196.483475 1489.828761 C 194.530336 1490.992315 192.409784 1491.839382 190.121821 1492.388579 L 209.653216 1522.743376 L 192.633 1522.743376 M 190.837972 1472.654704 C 190.837972 1469.126808 189.675389 1466.520447 187.359524 1464.807696 C 185.06226 1463.094944 181.779125 1462.247877 177.51012 1462.247877 L 158.127536 1462.247877 L 158.127536 1483.573494 L 177.919349 1483.573494 C 180.179411 1483.573494 182.104648 1483.312858 183.713663 1482.800895 C 185.359881 1482.251697 186.689876 1481.507023 187.712949 1480.548254 C 188.773225 1479.552252 189.563781 1478.388698 190.075318 1477.057592 C 190.586854 1475.726486 190.837972 1474.255754 190.837972 1472.654704 " transform="matrix(0.419997,0,0,0.419646,199.786147,-211.142692)"/>
<path style="fill-rule:nonzero;fill:rgb(0%,0%,0%);fill-opacity:1;stroke-width:1.881482;stroke-linecap:butt;stroke-linejoin:miter;stroke:rgb(0%,0%,0%);stroke-opacity:1;stroke-miterlimit:4;" d="M -354.729698 1622.120195 C -351.892996 1622.120195 -349.446921 1621.729241 -347.400775 1620.947333 C -345.317426 1620.118882 -343.522398 1619.067029 -342.01569 1617.763849 C -340.481081 1616.469977 -339.21619 1614.999245 -338.221019 1613.351652 C -337.197946 1611.713368 -336.360886 1610.056467 -335.70984 1608.380949 L -322.530798 1613.351652 C -323.591074 1615.948705 -324.976873 1618.499215 -326.688195 1620.993875 C -328.399518 1623.488534 -330.52937 1625.694633 -333.096353 1627.61217 C -335.663337 1629.520398 -338.713954 1631.074906 -342.276109 1632.275694 C -345.79176 1633.439248 -349.949157 1634.016371 -354.729698 1634.016371 C -360.989046 1634.016371 -366.402032 1633.094836 -370.98726 1631.251767 C -375.563187 1629.371463 -379.357858 1626.774411 -382.361972 1623.451301 C -385.338185 1620.109574 -387.561044 1616.144182 -389.030549 1611.564433 C -390.462851 1606.984685 -391.188303 1601.976748 -391.188303 1596.540624 C -391.188303 1590.899714 -390.462851 1585.808002 -389.030549 1581.256179 C -387.561044 1576.713664 -385.356786 1572.850665 -382.417776 1569.67649 C -379.478766 1566.465081 -375.767801 1563.998346 -371.294182 1562.294903 C -366.783359 1560.544918 -361.481981 1559.679234 -355.399346 1559.679234 C -350.683909 1559.679234 -346.563715 1560.172581 -343.038763 1561.159274 C -339.48591 1562.155277 -336.425991 1563.551541 -333.868308 1565.366686 C -331.264122 1567.144596 -329.13427 1569.266919 -327.460151 1571.724345 C -325.748828 1574.153845 -324.409533 1576.834674 -323.460865 1579.776138 L -336.788717 1583.415735 C -337.263051 1581.879844 -337.997803 1580.409112 -338.992974 1579.003538 C -339.978845 1577.57004 -341.243735 1576.304093 -342.787645 1575.215007 C -344.285052 1574.116612 -346.07078 1573.241619 -348.116926 1572.599337 C -350.172373 1571.910513 -352.488238 1571.566101 -355.092424 1571.566101 C -358.747585 1571.566101 -361.89121 1572.171149 -364.523298 1573.362629 C -367.155386 1574.526183 -369.322441 1576.2017 -371.033763 1578.389182 C -372.707883 1580.576663 -373.954172 1583.21095 -374.781931 1586.282732 C -375.563187 1589.326589 -375.953815 1592.742784 -375.953815 1596.540624 C -375.953815 1600.301231 -375.563187 1603.754659 -374.781931 1606.8916 C -373.954172 1610.009925 -372.689281 1612.690753 -370.98726 1614.943394 C -369.275938 1617.196034 -367.090281 1618.964637 -364.420991 1620.221275 C -361.723798 1621.487222 -358.487167 1622.120195 -354.729698 1622.120195 " transform="matrix(0.419997,0,0,0.419646,199.786147,-211.142692)"/>
<path style="fill-rule:nonzero;fill:rgb(0%,0%,0%);fill-opacity:1;stroke-width:1.881482;stroke-linecap:butt;stroke-linejoin:miter;stroke:rgb(0%,0%,0%);stroke-opacity:1;stroke-miterlimit:4;" d="M -242.684595 1596.540624 C -242.684595 1602.181534 -243.521655 1607.301171 -245.205075 1611.918154 C -246.879195 1616.535136 -249.288067 1620.481911 -252.431691 1623.758479 C -255.575316 1627.044355 -259.41649 1629.576249 -263.964515 1631.354159 C -268.475337 1633.13207 -273.590703 1634.016371 -279.29201 1634.016371 C -285.346742 1634.016371 -290.63882 1633.094836 -295.186845 1631.251767 C -299.697667 1629.371463 -303.473737 1626.774411 -306.515054 1623.451301 C -309.565672 1620.109574 -311.853636 1616.144182 -313.388245 1611.564433 C -314.894953 1606.984685 -315.648307 1601.976748 -315.648307 1596.540624 C -315.648307 1590.899714 -314.85775 1585.808002 -313.285938 1581.256179 C -311.676923 1576.713664 -309.342456 1572.850665 -306.263937 1569.67649 C -303.148214 1566.465081 -299.344242 1563.998346 -294.83342 1562.294903 C -290.285395 1560.544918 -285.067722 1559.679234 -279.189703 1559.679234 C -273.311683 1559.679234 -268.121912 1560.544918 -263.61109 1562.294903 C -259.063065 1564.03558 -255.249793 1566.511623 -252.171273 1569.723032 C -249.064851 1572.934441 -246.702482 1576.816057 -245.102768 1581.358572 C -243.493753 1585.873161 -242.684595 1590.936948 -242.684595 1596.540624 M -258.123698 1596.540624 C -258.123698 1592.742784 -258.57943 1589.326589 -259.509497 1586.282732 C -260.39306 1583.21095 -261.723055 1580.576663 -263.499482 1578.389182 C -265.285209 1576.2017 -267.489467 1574.526183 -270.121555 1573.362629 C -272.71644 1572.171149 -275.739156 1571.566101 -279.189703 1571.566101 C -282.714654 1571.566101 -285.802475 1572.171149 -288.471766 1573.362629 C -291.103854 1574.526183 -293.308111 1576.2017 -295.084538 1578.389182 C -296.860965 1580.576663 -298.200261 1583.21095 -299.083824 1586.282732 C -299.976687 1589.326589 -300.413819 1592.742784 -300.413819 1596.540624 C -300.413819 1600.301231 -299.976687 1603.754659 -299.083824 1606.8916 C -298.163058 1610.009925 -296.814462 1612.690753 -295.038035 1614.943394 C -293.261608 1617.196034 -291.05735 1618.964637 -288.425262 1620.221275 C -285.793174 1621.487222 -282.742556 1622.120195 -279.29201 1622.120195 C -275.599646 1622.120195 -272.42812 1621.487222 -269.758829 1620.221275 C -267.089538 1618.927403 -264.903882 1617.149492 -263.19256 1614.896852 C -261.453336 1612.606978 -260.169844 1609.907532 -259.351385 1606.789208 C -258.532927 1603.652266 -258.123698 1600.226763 -258.123698 1596.540624 " transform="matrix(0.419997,0,0,0.419646,199.786147,-211.142692)"/>
<path style="fill-rule:nonzero;fill:rgb(0%,0%,0%);fill-opacity:1;stroke-width:1.881482;stroke-linecap:butt;stroke-linejoin:miter;stroke:rgb(0%,0%,0%);stroke-opacity:1;stroke-miterlimit:4;" d="M -187.661865 1632.992443 L -219.135313 1577.365254 C -218.967901 1578.863912 -218.80979 1580.371878 -218.67958 1581.879844 C -218.54007 1583.173716 -218.437763 1584.579289 -218.363358 1586.077947 C -218.26105 1587.585913 -218.214547 1589.019411 -218.214547 1590.387751 L -218.214547 1632.992443 L -231.644706 1632.992443 L -231.644706 1560.749703 L -214.373373 1560.749703 L -182.425591 1616.842314 C -182.602303 1615.408816 -182.751114 1613.90085 -182.890624 1612.327725 C -183.030134 1610.996619 -183.141742 1609.488653 -183.244049 1607.822444 C -183.318454 1606.146926 -183.346356 1604.452791 -183.346356 1602.74004 L -183.346356 1560.749703 L -169.916197 1560.749703 L -169.916197 1632.992443 L -187.661865 1632.992443 " transform="matrix(0.419997,0,0,0.419646,199.786147,-211.142692)"/>
<path style="fill-rule:nonzero;fill:rgb(0%,0%,0%);fill-opacity:1;stroke-width:1.881482;stroke-linecap:butt;stroke-linejoin:miter;stroke:rgb(0%,0%,0%);stroke-opacity:1;stroke-miterlimit:4;" d="M -97.203603 1612.17879 C -97.203603 1615.455358 -97.798846 1618.443364 -98.989331 1621.152118 C -100.189116 1623.81433 -102.049249 1626.104204 -104.57903 1628.021741 C -107.080909 1629.929969 -110.289638 1631.419318 -114.223819 1632.48048 C -118.120797 1633.504407 -122.761829 1634.016371 -128.165515 1634.016371 C -132.955357 1634.016371 -137.168558 1633.588183 -140.83302 1632.731807 C -144.488181 1631.88474 -147.631805 1630.618793 -150.263893 1628.943276 C -152.858779 1627.267758 -154.97933 1625.201286 -156.616247 1622.734551 C -158.225262 1620.239892 -159.387845 1617.391512 -160.103996 1614.180103 L -145.492652 1611.769219 C -145.083423 1613.370269 -144.488181 1614.841001 -143.697624 1616.172107 C -142.916368 1617.512521 -141.837491 1618.666767 -140.470294 1619.662769 C -139.065893 1620.621537 -137.34527 1621.366212 -135.289824 1621.915409 C -133.206475 1622.427373 -130.695295 1622.688009 -127.756285 1622.688009 C -122.631619 1622.688009 -118.71604 1621.915409 -116.018847 1620.379518 C -113.284452 1618.806393 -111.917254 1616.367584 -111.917254 1613.044474 C -111.917254 1611.061778 -112.456693 1609.442111 -113.554171 1608.176164 C -114.651649 1606.910217 -116.102553 1605.867673 -117.916183 1605.048531 C -119.720511 1604.229389 -121.80386 1603.549873 -124.166229 1603.000676 C -126.528598 1602.451478 -128.983973 1601.920898 -131.550957 1601.408934 C -133.597103 1600.934204 -135.65255 1600.431549 -137.698696 1599.919585 C -139.754143 1599.407621 -141.716583 1598.793265 -143.595317 1598.076515 C -145.446149 1597.359766 -147.166772 1596.50339 -148.775787 1595.516697 C -150.384802 1594.520694 -151.779902 1593.310598 -152.979687 1591.8771 C -154.14227 1590.406367 -155.063036 1588.693616 -155.751285 1586.748154 C -156.402332 1584.802691 -156.718554 1582.503509 -156.718554 1579.878531 C -156.718554 1576.285476 -156.002403 1573.213694 -154.570101 1570.644567 C -153.137799 1568.084748 -151.147456 1565.999659 -148.626976 1564.3893 C -146.059993 1562.751016 -143.018676 1561.559537 -139.493724 1560.805554 C -135.978073 1560.051571 -132.127598 1559.679234 -127.9609 1559.679234 C -123.245463 1559.679234 -119.208975 1560.051571 -115.860736 1560.805554 C -112.475294 1561.522303 -109.657193 1562.630007 -107.397131 1564.137973 C -105.109168 1565.63663 -103.31414 1567.53555 -102.021347 1569.825425 C -100.682052 1572.087373 -99.714782 1574.730968 -99.091638 1577.774825 L -113.758786 1579.776138 C -114.512139 1576.667122 -116.046749 1574.321397 -118.371915 1572.748272 C -120.659879 1571.175147 -123.961614 1570.393239 -128.267822 1570.393239 C -130.937113 1570.393239 -133.159971 1570.62595 -134.936398 1571.109988 C -136.675623 1571.556793 -138.080023 1572.171149 -139.140299 1572.953058 C -140.163372 1573.744274 -140.898124 1574.665809 -141.344556 1575.72697 C -141.790988 1576.750898 -142.004903 1577.839984 -142.004903 1579.003538 C -142.004903 1580.781449 -141.577073 1582.252181 -140.730712 1583.415735 C -139.875051 1584.542055 -138.675265 1585.500824 -137.140656 1586.282732 C -135.596746 1587.036715 -133.773815 1587.688305 -131.653264 1588.237503 C -129.49551 1588.749467 -127.142442 1589.280047 -124.575458 1589.819936 C -122.324697 1590.303975 -120.083237 1590.815938 -117.860379 1591.365136 C -115.63752 1591.8771 -113.516968 1592.491456 -111.498724 1593.208205 C -109.489781 1593.924955 -107.611046 1594.799947 -105.862522 1595.823875 C -104.123297 1596.847802 -102.61659 1598.113749 -101.351699 1599.612407 C -100.049606 1601.083139 -99.045135 1602.842432 -98.328983 1604.899596 C -97.57563 1606.947451 -97.203603 1609.376952 -97.203603 1612.17879 " transform="matrix(0.419997,0,0,0.419646,199.786147,-211.142692)"/>
<path style="fill-rule:nonzero;fill:rgb(0%,0%,0%);fill-opacity:1;stroke-width:1.881482;stroke-linecap:butt;stroke-linejoin:miter;stroke:rgb(0%,0%,0%);stroke-opacity:1;stroke-miterlimit:4;" d="M -53.704396 1572.441094 L -53.704396 1632.992443 L -68.827276 1632.992443 L -68.827276 1572.441094 L -92.153342 1572.441094 L -92.153342 1560.749703 L -30.322526 1560.749703 L -30.322526 1572.441094 L -53.704396 1572.441094 " transform="matrix(0.419997,0,0,0.419646,199.786147,-211.142692)"/>
<path style="fill-rule:nonzero;fill:rgb(0%,0%,0%);fill-opacity:1;stroke-width:1.881482;stroke-linecap:butt;stroke-linejoin:miter;stroke:rgb(0%,0%,0%);stroke-opacity:1;stroke-miterlimit:4;" d="M 27.164881 1632.992443 L 10.405084 1605.560495 L -7.340584 1605.560495 L -7.340584 1632.992443 L -22.463464 1632.992443 L -22.463464 1560.749703 L 13.632414 1560.749703 C 18.143236 1560.749703 22.077417 1561.261667 25.425657 1562.294903 C 28.811098 1563.281597 31.6292 1564.715095 33.87996 1566.595399 C 36.140022 1568.438468 37.814141 1570.700417 38.91162 1573.362629 C 40.037 1575.996915 40.604341 1578.966305 40.604341 1582.289415 C 40.604341 1584.98886 40.185811 1587.464903 39.367352 1589.717544 C 38.586097 1591.942259 37.470017 1593.924955 36.037715 1595.665631 C 34.633314 1597.406308 32.959195 1598.87704 31.015356 1600.077828 C 29.062216 1601.241382 26.941665 1602.08845 24.653701 1602.637647 L 44.185097 1632.992443 L 27.164881 1632.992443 M 25.369853 1582.903771 C 25.369853 1579.375876 24.207269 1576.769515 21.882103 1575.056763 C 19.59414 1573.344012 16.311005 1572.496944 12.042 1572.496944 L -7.340584 1572.496944 L -7.340584 1593.822562 L 12.45123 1593.822562 C 14.711291 1593.822562 16.636529 1593.561926 18.245544 1593.049962 C 19.882461 1592.510073 21.221756 1591.75609 22.244829 1590.797322 C 23.305105 1589.801319 24.095662 1588.647074 24.607198 1587.30666 C 25.118735 1585.975554 25.369853 1584.504822 25.369853 1582.903771 " transform="matrix(0.419997,0,0,0.419646,199.786147,-211.142692)"/>
<path style="fill-rule:nonzero;fill:rgb(0%,0%,0%);fill-opacity:1;stroke-width:1.881482;stroke-linecap:butt;stroke-linejoin:miter;stroke:rgb(0%,0%,0%);stroke-opacity:1;stroke-miterlimit:4;" d="M 83.117678 1634.016371 C 78.606855 1634.016371 74.47736 1633.48579 70.710591 1632.424629 C 66.953123 1631.335543 63.707191 1629.660025 60.972796 1627.407384 C 58.275603 1625.11751 56.155052 1622.194662 54.611141 1618.638841 C 53.113734 1615.08302 52.36038 1610.838375 52.36038 1605.923523 L 52.36038 1560.749703 L 67.483261 1560.749703 L 67.483261 1604.741353 C 67.483261 1607.78521 67.864588 1610.419496 68.608641 1612.634903 C 69.361995 1614.822384 70.440872 1616.637529 71.845272 1618.071027 C 73.240372 1619.4766 74.933093 1620.519145 76.914134 1621.19866 C 78.904477 1621.85025 81.108734 1622.176046 83.526907 1622.176046 C 85.991583 1622.176046 88.251644 1621.831634 90.29779 1621.152118 C 92.381139 1620.42606 94.157566 1619.336974 95.627071 1617.866242 C 97.133779 1616.395509 98.296362 1614.533823 99.11482 1612.281182 C 99.933279 1610.019233 100.351809 1607.338405 100.351809 1604.229389 L 100.351809 1560.749703 L 115.474689 1560.749703 L 115.474689 1605.150924 C 115.474689 1610.112318 114.665531 1614.394196 113.065817 1618.024485 C 111.456802 1621.645465 109.215342 1624.652088 106.350737 1627.044355 C 103.476832 1629.399389 100.054187 1631.158682 96.092104 1632.322236 C 92.157923 1633.448557 87.842415 1634.016371 83.117678 1634.016371 " transform="matrix(0.419997,0,0,0.419646,199.786147,-211.142692)"/>
<path style="fill-rule:nonzero;fill:rgb(0%,0%,0%);fill-opacity:1;stroke-width:1.881482;stroke-linecap:butt;stroke-linejoin:miter;stroke:rgb(0%,0%,0%);stroke-opacity:1;stroke-miterlimit:4;" d="M 162.350037 1622.120195 C 165.18674 1622.120195 167.632815 1621.729241 169.678961 1620.947333 C 171.77161 1620.118882 173.566638 1619.067029 175.064045 1617.763849 C 176.607956 1616.469977 177.872846 1614.999245 178.858716 1613.351652 C 179.88179 1611.713368 180.718849 1610.056467 181.369896 1608.380949 L 194.548937 1613.351652 C 193.488661 1615.948705 192.102862 1618.499215 190.39154 1620.993875 C 188.689519 1623.488534 186.550366 1625.694633 183.983382 1627.61217 C 181.4257 1629.520398 178.365781 1631.074906 174.812927 1632.275694 C 171.287976 1633.439248 167.139879 1634.016371 162.350037 1634.016371 C 156.099991 1634.016371 150.677703 1633.094836 146.101777 1631.251767 C 141.516549 1629.371463 137.721878 1626.774411 134.717763 1623.451301 C 131.741551 1620.109574 129.518692 1616.144182 128.049187 1611.564433 C 126.616885 1606.984685 125.900734 1601.976748 125.900734 1596.540624 C 125.900734 1590.899714 126.616885 1585.808002 128.049187 1581.256179 C 129.518692 1576.713664 131.722949 1572.850665 134.661959 1569.67649 C 137.600969 1566.465081 141.311934 1563.998346 145.794855 1562.294903 C 150.305677 1560.544918 155.597755 1559.679234 161.68969 1559.679234 C 166.405127 1559.679234 170.516021 1560.172581 174.040972 1561.159274 C 177.593826 1562.155277 180.653745 1563.551541 183.220728 1565.366686 C 185.815613 1567.144596 187.954766 1569.266919 189.628886 1571.724345 C 191.340208 1574.153845 192.670203 1576.834674 193.628171 1579.776138 L 180.300319 1583.415735 C 179.816685 1581.879844 179.081932 1580.409112 178.086761 1579.003538 C 177.100891 1577.57004 175.836001 1576.304093 174.301391 1575.215007 C 172.794683 1574.116612 171.018256 1573.241619 168.96281 1572.599337 C 166.916663 1571.910513 164.591497 1571.566101 161.996612 1571.566101 C 158.33215 1571.566101 155.188526 1572.171149 152.556438 1573.362629 C 149.92435 1574.526183 147.757295 1576.2017 146.045973 1578.389182 C 144.371853 1580.576663 143.125564 1583.21095 142.307106 1586.282732 C 141.516549 1589.326589 141.125921 1592.742784 141.125921 1596.540624 C 141.125921 1600.301231 141.516549 1603.754659 142.307106 1606.8916 C 143.125564 1610.009925 144.390454 1612.690753 146.101777 1614.943394 C 147.803798 1617.196034 149.998755 1618.964637 152.658745 1620.221275 C 155.365238 1621.487222 158.592569 1622.120195 162.350037 1622.120195 " transform="matrix(0.419997,0,0,0.419646,199.786147,-211.142692)"/>
<path style="fill-rule:nonzero;fill:rgb(0%,0%,0%);fill-opacity:1;stroke-width:1.881482;stroke-linecap:butt;stroke-linejoin:miter;stroke:rgb(0%,0%,0%);stroke-opacity:1;stroke-miterlimit:4;" d="M 236.764653 1572.441094 L 236.764653 1632.992443 L 221.641772 1632.992443 L 221.641772 1572.441094 L 198.306406 1572.441094 L 198.306406 1560.749703 L 260.137222 1560.749703 L 260.137222 1572.441094 L 236.764653 1572.441094 " transform="matrix(0.419997,0,0,0.419646,199.786147,-211.142692)"/>
<path style="fill-rule:nonzero;fill:rgb(0%,0%,0%);fill-opacity:1;stroke-width:1.881482;stroke-linecap:butt;stroke-linejoin:miter;stroke:rgb(0%,0%,0%);stroke-opacity:1;stroke-miterlimit:4;" d="M 268.005584 1632.992443 L 268.005584 1560.749703 L 283.128465 1560.749703 L 283.128465 1632.992443 L 268.005584 1632.992443 " transform="matrix(0.419997,0,0,0.419646,199.786147,-211.142692)"/>
<path style="fill-rule:nonzero;fill:rgb(0%,0%,0%);fill-opacity:1;stroke-width:1.881482;stroke-linecap:butt;stroke-linejoin:miter;stroke:rgb(0%,0%,0%);stroke-opacity:1;stroke-miterlimit:4;" d="M 367.020457 1596.540624 C 367.020457 1602.181534 366.183397 1607.301171 364.509278 1611.918154 C 362.835158 1616.535136 360.426286 1620.481911 357.282661 1623.758479 C 354.139037 1627.044355 350.297863 1629.576249 345.749838 1631.354159 C 341.239015 1633.13207 336.12365 1634.016371 330.422343 1634.016371 C 324.36761 1634.016371 319.066232 1633.094836 314.527507 1631.251767 C 310.016685 1629.371463 306.240615 1626.774411 303.189998 1623.451301 C 300.14868 1620.109574 297.860717 1616.144182 296.326107 1611.564433 C 294.8194 1606.984685 294.066046 1601.976748 294.066046 1596.540624 C 294.066046 1590.899714 294.856602 1585.808002 296.428415 1581.256179 C 298.03743 1576.713664 300.371896 1572.850665 303.450416 1569.67649 C 306.556838 1566.465081 310.37011 1563.998346 314.880933 1562.294903 C 319.428958 1560.544918 324.64663 1559.679234 330.52465 1559.679234 C 336.40267 1559.679234 341.592441 1560.544918 346.103263 1562.294903 C 350.651288 1564.03558 354.46456 1566.511623 357.54308 1569.723032 C 360.649502 1572.934441 363.011871 1576.816057 364.611585 1581.358572 C 366.2206 1585.873161 367.020457 1590.936948 367.020457 1596.540624 M 351.590655 1596.540624 C 351.590655 1592.742784 351.134922 1589.326589 350.204856 1586.282732 C 349.321293 1583.21095 347.991298 1580.576663 346.20557 1578.389182 C 344.429143 1576.2017 342.224886 1574.526183 339.592798 1573.362629 C 336.997913 1572.171149 333.975197 1571.566101 330.52465 1571.566101 C 326.999698 1571.566101 323.902577 1572.171149 321.242587 1573.362629 C 318.610499 1574.526183 316.406242 1576.2017 314.629815 1578.389182 C 312.853388 1580.576663 311.514092 1583.21095 310.630529 1586.282732 C 309.737665 1589.326589 309.291233 1592.742784 309.291233 1596.540624 C 309.291233 1600.301231 309.737665 1603.754659 310.630529 1606.8916 C 311.551295 1610.009925 312.899891 1612.690753 314.676318 1614.943394 C 316.452745 1617.196034 318.657002 1618.964637 321.28909 1620.221275 C 323.921178 1621.487222 326.962496 1622.120195 330.422343 1622.120195 C 334.105406 1622.120195 337.286233 1621.487222 339.955524 1620.221275 C 342.624814 1618.927403 344.810471 1617.149492 346.512492 1614.896852 C 348.261017 1612.606978 349.544509 1609.907532 350.362967 1606.789208 C 351.181426 1603.652266 351.590655 1600.226763 351.590655 1596.540624 " transform="matrix(0.419997,0,0,0.419646,199.786147,-211.142692)"/>
<path style="fill-rule:nonzero;fill:rgb(0%,0%,0%);fill-opacity:1;stroke-width:1.881482;stroke-linecap:butt;stroke-linejoin:miter;stroke:rgb(0%,0%,0%);stroke-opacity:1;stroke-miterlimit:4;" d="M 422.052488 1632.992443 L 390.57904 1577.365254 C 390.746452 1578.863912 390.904563 1580.371878 391.034772 1581.879844 C 391.174282 1583.173716 391.27659 1584.579289 391.341694 1586.077947 C 391.444002 1587.585913 391.499806 1589.019411 391.499806 1590.387751 L 391.499806 1632.992443 L 378.069646 1632.992443 L 378.069646 1560.749703 L 395.34098 1560.749703 L 427.288762 1616.842314 C 427.11205 1615.408816 426.963239 1613.90085 426.823729 1612.327725 C 426.684219 1610.996619 426.56331 1609.488653 426.461003 1607.822444 C 426.395898 1606.146926 426.358696 1604.452791 426.358696 1602.74004 L 426.358696 1560.749703 L 439.798156 1560.749703 L 439.798156 1632.992443 L 422.052488 1632.992443 " transform="matrix(0.419997,0,0,0.419646,199.786147,-211.142692)"/>
<path style=" stroke:none;fill-rule:evenodd;fill:rgb(100%,0%,0%);fill-opacity:1;" d="M 21.511719 368.363281 C 5.902344 367.085938 -4.726562 348.960938 2.113281 334.78125 C 30.40625 285.707031 159.527344 64.0625 190.546875 9.703125 C 199.460938 -3.167969 220.488281 -3.300781 229.355469 9.707031 C 257.746094 58.722656 386.320312 280.175781 417.929688 334.199219 C 424.628906 348.34375 414.671875 367.613281 398.960938 368.78125 C 342.28125 368.839844 84.140625 368.023438 21.511719 368.363281 Z M 21.511719 368.363281 "/>
<path style=" stroke:none;fill-rule:evenodd;fill:rgb(100%,73.333333%,0%);fill-opacity:1;" d="M 63.359375 325.582031 L 360.832031 324.722656 L 211.328125 62.3125 Z M 63.359375 325.582031 "/>
<path style=" stroke:none;fill-rule:evenodd;fill:rgb(0%,0%,0%);fill-opacity:1;" d="M 214.96875 160.816406 C 205.878906 161.050781 201.804688 169.109375 201.488281 174.761719 C 201.429688 175.757812 202.132812 177.683594 203.265625 178.816406 C 203.835938 179.382812 204.695312 180.714844 205.460938 180.960938 C 206.230469 181.210938 207.277344 182.367188 207.8125 182.800781 C 208.882812 183.664062 209.296875 183.644531 209.863281 184.746094 C 210.433594 185.84375 210.605469 188.871094 211.667969 190.175781 C 212.1875 190.8125 213.382812 189.289062 214.242188 189.949219 C 216.457031 191.644531 215.730469 190.628906 216.296875 191.265625 C 217.429688 192.542969 217.246094 192.15625 218.8125 192.511719 C 221.648438 192.789062 222.367188 189.109375 225.292969 188.277344 C 225.851562 188.804688 226.183594 189.378906 226.40625 189.972656 C 226.234375 193.457031 224.957031 197.875 226.40625 199.792969 C 229.15625 213.742188 227.617188 209.082031 228.875 217.980469 C 222.191406 219.429688 217.351562 222.226562 210.992188 218.84375 C 205.941406 216.160156 206.371094 212.132812 200.347656 215.738281 C 199.265625 216.386719 197.042969 216.945312 198.128906 218.394531 C 199.867188 218.59375 204.761719 217.855469 204.785156 221.0625 C 198.222656 221.085938 196.257812 220.011719 188.8125 220.171875 C 188.011719 220.996094 188.742188 223.347656 187.484375 223.71875 C 178.714844 224.652344 176.480469 219.054688 171.511719 216.191406 C 171.804688 213.082031 170.933594 208.800781 171.960938 206.429688 C 173.085938 208.261719 172.886719 211.421875 174.179688 213.082031 C 176.582031 213.558594 176.820312 211.878906 179.058594 212.195312 C 175.582031 195.097656 172.027344 177.046875 167.085938 162.121094 C 166.183594 161.542969 164.136719 162.792969 162.648438 163.011719 C 166.429688 178.859375 169.027344 195.648438 168.414062 215.300781 C 167.289062 218.902344 162.59375 218.949219 162.195312 223.28125 C 153.324219 222.984375 160.523438 223.523438 151.632812 223.207031 L 151.632812 230.300781 L 158.339844 230.300781 C 158.332031 255.710938 158.035156 290.183594 158.328125 316.332031 C 160.488281 316.128906 163.285156 316.332031 165.484375 316.332031 C 165.484375 294.136719 165.480469 254.121094 165.742188 230.808594 L 217.199219 230.808594 C 219.027344 231.160156 218.027344 228.683594 219.855469 229.03125 C 223.441406 231.066406 229.703125 230.429688 232.71875 233.027344 L 232.71875 236.570312 C 222.136719 239.785156 211.707031 243.863281 202.117188 248.097656 C 199.242188 249.367188 194.21875 250.980469 192.800781 252.96875 C 190.871094 255.675781 192.003906 258.914062 191.472656 262.714844 C 188.804688 273.292969 179.273438 297.683594 179.273438 297.683594 L 183.046875 299.675781 C 183.046875 299.675781 178.621094 303.5 174.289062 304.949219 C 170.390625 306.253906 166.140625 309.890625 169.269531 310.109375 C 175.238281 310.527344 182.796875 310.460938 188.46875 308.269531 C 189.082031 309.429688 187.953125 309.609375 189.230469 310.109375 C 190.503906 310.605469 195.402344 310.160156 197.226562 310.109375 C 198.136719 306.300781 196.679688 304.957031 196.800781 301.714844 C 196.957031 297.511719 199.597656 292.945312 200.785156 288.421875 C 202.027344 283.703125 203.03125 279.183594 204.785156 275.128906 L 204.371094 272.960938 C 206.023438 281.089844 207.488281 289.257812 208.988281 297.410156 C 211.957031 298.40625 214.757812 297.835938 217.757812 299.105469 C 217.8125 300.355469 218.695312 301.464844 218.644531 302.734375 C 213.503906 309.960938 209.710938 310.902344 209.710938 310.902344 C 213.503906 309.964844 207.667969 311.210938 207.941406 313.773438 C 208.214844 316.335938 217.304688 312.882812 217.304688 312.882812 C 218.976562 311.1875 220.847656 311.359375 222.503906 309.503906 C 223.246094 311.082031 222.878906 310.769531 224.035156 310.476562 C 225.191406 310.179688 227.878906 309.890625 228.816406 309.398438 C 229.316406 304.222656 228.507812 301.460938 226.503906 297.171875 L 227.761719 297.148438 C 224.292969 285.8125 220.757812 274.117188 218.054688 262.347656 C 218.054688 262.347656 235.5 261.039062 240.695312 262.050781 C 240.101562 270.765625 240.695312 282.925781 240.695312 292.40625 C 240.191406 301.574219 240.910156 307.734375 236.46875 308.257812 C 232.722656 308.703125 223.78125 311.785156 220.320312 312.644531 C 220.445312 314.148438 220.535156 314.445312 220.273438 316.332031 L 224.554688 316.332031 C 225.804688 316.332031 225.601562 315.066406 226.714844 313.605469 C 229.300781 312.542969 238.539062 311.722656 242.984375 311.4375 C 250.140625 310.28125 257.511719 312.476562 268.441406 313.628906 C 269.617188 314 270.574219 316.332031 270.574219 316.332031 L 275.050781 316.285156 C 275.050781 316.285156 275.386719 314.40625 275.261719 312.691406 C 267.757812 310.589844 258.199219 310.558594 250.875 308.269531 C 246.257812 308.261719 246.25 305.238281 246.25 293.257812 L 246.25 279.613281 C 246.527344 274.277344 246.253906 268.0625 246.472656 262.714844 C 251.164062 262.675781 256.742188 264.476562 260.226562 262.277344 C 264.988281 259.273438 264.414062 258.613281 265.402344 251.40625 C 266.390625 244.195312 267.886719 229.1875 268.652344 221.941406 C 268.921875 219.417969 270.414062 207.765625 270.777344 205.019531 C 270.351562 204.960938 269.90625 204.832031 269.09375 204.664062 C 266.890625 216.632812 265.800781 232.597656 264.074219 245.109375 C 263.066406 252.390625 262.332031 260.996094 254.898438 259.171875 C 260.171875 253.519531 262.382812 243.066406 261.570312 231.984375 C 262.453125 221.648438 260.214844 216.777344 258.414062 205.507812 C 257.792969 201.621094 251.265625 191.191406 249.191406 188.71875 C 247.976562 187.265625 242.449219 183 240.160156 181.269531 L 240.421875 180.9375 C 237.15625 179.96875 234.539062 178.46875 231.820312 177.273438 C 230.6875 169.46875 225.101562 164.402344 220.546875 161.554688 C 218.511719 160.996094 216.652344 160.773438 214.96875 160.816406 Z M 214.96875 160.816406 "/>
</g>
</svg>
